<svg width="261" height="171" viewBox="0 0 261 171" fill="none" xmlns="http://www.w3.org/2000/svg">
<g clip-path="url(#clip0)">
<path d="M223.601 171C202.946 171 186.202 169.722 186.202 168.146C186.202 166.57 202.946 165.292 223.601 165.292C244.256 165.292 261 166.57 261 168.146C261 169.722 244.256 171 223.601 171Z" fill="#E6E6E6"/>
<path d="M211.488 42.957L226.408 38.8856C222.424 35.1239 220.691 31.5803 221.209 28.2546H211.488V42.957Z" fill="#9F616A"/>
<path d="M209.906 157.409L214.725 158.088L220.531 104.707L229.799 157.862L234.773 158.088V90.6832H204.028L209.906 157.409Z" fill="#2F2E41"/>
<path d="M232.27 168.17C231.513 168.192 230.772 167.96 230.162 167.51C229.553 167.061 229.112 166.421 228.908 165.692L228.556 160.436L229.266 156.708C231.138 155.168 233.031 155.2 234.943 156.708L235.553 164.516C235.588 164.974 235.531 165.435 235.383 165.87C235.236 166.305 235.001 166.705 234.694 167.047C234.387 167.389 234.014 167.665 233.597 167.858C233.181 168.051 232.729 168.157 232.27 168.17Z" fill="#2F2E41"/>
<path d="M212.376 168.17C211.62 168.192 210.878 167.96 210.269 167.51C209.659 167.061 209.218 166.421 209.015 165.692L208.662 160.436L209.372 156.708C211.244 155.168 213.137 155.2 215.049 156.708L215.659 164.516C215.695 164.974 215.637 165.435 215.49 165.87C215.342 166.305 215.108 166.705 214.801 167.047C214.494 167.389 214.12 167.665 213.704 167.858C213.287 168.051 212.835 168.157 212.376 168.17Z" fill="#2F2E41"/>
<path d="M213.523 35.2665C208.778 35.2665 204.932 31.4183 204.932 26.6713C204.932 21.9243 208.778 18.076 213.523 18.076C218.267 18.076 222.113 21.9243 222.113 26.6713C222.113 31.4183 218.267 35.2665 213.523 35.2665Z" fill="#9F616A"/>
<path d="M202.672 91.8141H235.451C231.203 72.1134 231.214 56.2468 234.599 43.4148C234.814 42.5978 234.721 41.73 234.336 40.9778C233.951 40.2256 233.303 39.6419 232.515 39.3388L223.696 35.9451C221.048 39.3661 217.312 40.8604 211.488 38.6594L206.867 39.6078C205.742 39.8374 204.738 40.4672 204.041 41.3806C203.344 42.294 203.002 43.429 203.077 44.5756C203.418 49.5942 203.283 54.6511 203.576 59.0165C204.482 72.5347 204.874 83.0731 202.672 91.8141Z" fill="#E6E6E6"/>
<path d="M218.044 15.3618C218.044 15.3618 213.071 9.707 207.193 15.1356L205.611 15.588L206.741 16.4927C206.741 16.4927 200.863 19.207 201.315 24.8618C201.315 24.8618 202.22 24.6356 202.672 24.8618C203.124 25.0879 203.35 27.576 203.35 27.576C203.35 27.576 204.028 25.7665 204.254 25.5403C204.48 25.3141 207.645 28.0284 212.845 23.957C212.845 23.957 214.427 28.0284 216.236 27.576C218.044 27.1237 220.531 27.3498 221.661 30.2903C221.661 30.2903 227.765 17.1713 218.044 15.3618Z" fill="#2F2E41"/>
<path d="M201.089 86.8379L203.991 90.7296C204.294 91.1349 204.512 91.5964 204.635 92.087C204.757 92.5777 204.781 93.0878 204.704 93.5877C204.628 94.0876 204.452 94.5673 204.189 94.9988C203.925 95.4304 203.579 95.8052 203.169 96.1014C202.642 96.4829 202.025 96.7229 201.379 96.7985C200.732 96.8741 200.077 96.7828 199.476 96.5333C198.875 96.2838 198.347 95.8844 197.944 95.3732C197.541 94.862 197.275 94.256 197.172 93.6129L196.342 88.4213L194.76 66.0284L195.89 54.7189L203.124 57.4332L201.089 67.1594V86.8379Z" fill="#9F616A"/>
<path d="M204.028 60.1474L195.212 56.076L195.664 52.8713C195.664 50.218 196.466 47.6268 197.964 45.4376C199.462 43.2485 201.587 41.5638 204.059 40.6045L206.741 39.5641L204.028 60.1474Z" fill="#E6E6E6"/>
<path d="M236.129 85.9331L233.227 89.8248C232.925 90.2301 232.706 90.6916 232.584 91.1822C232.462 91.6729 232.438 92.183 232.515 92.6829C232.591 93.1828 232.766 93.6625 233.03 94.094C233.293 94.5256 233.64 94.9003 234.05 95.1966C234.577 95.5781 235.193 95.8181 235.84 95.8937C236.486 95.9693 237.141 95.878 237.743 95.6285C238.344 95.379 238.871 94.9797 239.275 94.4684C239.678 93.9572 239.944 93.3512 240.046 92.7081L240.877 87.5165L242.459 65.1236L241.329 53.8141L234.095 56.5284L236.129 66.2546V85.9331Z" fill="#9F616A"/>
<path d="M233.19 59.2427L242.007 55.1713L241.555 51.9665C241.555 49.3133 240.753 46.722 239.255 44.5329C237.756 42.3437 235.632 40.659 233.159 39.6998L230.478 38.6594L233.19 59.2427Z" fill="#E6E6E6"/>
<path d="M2.37706 145.789H153.24C153.871 145.789 154.475 145.538 154.921 145.092C155.366 144.646 155.617 144.041 155.617 143.411V77.7675C155.617 77.1369 155.366 76.5324 154.921 76.0865C154.475 75.6406 153.871 75.3898 153.24 75.3891H2.37706C1.74684 75.3898 1.14262 75.6406 0.696991 76.0865C0.251358 76.5324 0.000701904 77.1369 0 77.7675V143.411C0.000701904 144.041 0.251358 144.646 0.696991 145.092C1.14262 145.538 1.74684 145.789 2.37706 145.789ZM153.24 76.3405C153.619 76.3409 153.981 76.4914 154.248 76.7589C154.516 77.0264 154.666 77.3892 154.667 77.7675V143.411C154.666 143.789 154.516 144.152 154.248 144.419C153.981 144.687 153.619 144.837 153.24 144.838H2.37706C1.99892 144.837 1.6364 144.687 1.36902 144.419C1.10164 144.152 0.951233 143.789 0.950821 143.411V77.7675C0.951233 77.3892 1.10164 77.0264 1.36902 76.7589C1.6364 76.4914 1.99892 76.3409 2.37706 76.3405H153.24Z" fill="#E6E6E6"/>
<path d="M147.06 83.4756C147.438 83.4756 147.801 83.626 148.069 83.8936C148.336 84.1612 148.486 84.5242 148.486 84.9026C148.486 85.2811 148.336 85.6441 148.069 85.9117C147.801 86.1793 147.438 86.3297 147.06 86.3297H127.093C126.715 86.3297 126.352 86.1793 126.084 85.9117C125.817 85.6441 125.667 85.2811 125.667 84.9026C125.667 84.5242 125.817 84.1612 126.084 83.8936C126.352 83.626 126.715 83.4756 127.093 83.4756H147.06Z" fill="#E6E6E6"/>
<path d="M10.367 93.3998V119.863H145.013V105.93C144.08 105.331 143.142 104.734 142.196 104.158C138.154 101.683 133.827 99.3681 129.112 98.5102C126.882 98.0942 124.597 98.0657 122.357 98.4259C119.991 98.8168 117.726 99.6325 115.484 100.451C113.272 101.261 111.056 102.096 108.743 102.566C106.489 103.009 104.176 103.054 101.906 102.701C97.5769 102.051 93.5094 100.31 89.4587 98.7353C85.3827 97.1518 81.1828 95.6555 76.7716 95.4586C72.4168 95.2618 68.1154 96.2912 63.9831 97.5681C55.5578 100.17 46.9552 104.028 38.0342 101.382C28.9752 98.6987 20.6429 90.9529 10.6036 93.2508C10.5086 93.2684 10.4239 93.3217 10.367 93.3998Z" fill="#E6E6E6"/>
<path d="M10.367 93.8611C10.41 93.9418 10.4788 94.0056 10.5624 94.0424C10.6461 94.0791 10.7396 94.0866 10.828 94.0636C12.0243 93.7892 13.2496 93.6627 14.4767 93.6867C24.3516 93.8611 31.9441 101.815 41.5998 103.005C50.3054 104.076 58.4994 99.8406 66.6849 97.6271C70.938 96.4768 75.3231 95.8665 79.6998 96.6483C84.0427 97.4218 88.1186 99.1993 92.2114 100.777C96.1524 102.296 100.248 103.708 104.515 103.778C109.207 103.857 113.431 101.922 117.783 100.448C120.046 99.6803 122.368 99.0728 124.765 99.0137C127.102 98.9857 129.428 99.3459 131.647 100.08C136.271 101.551 140.437 104.172 144.493 106.776C144.562 106.825 144.647 106.848 144.732 106.841C144.819 106.829 144.901 106.791 144.967 106.732C145.032 106.672 145.078 106.595 145.098 106.509C145.118 106.422 145.112 106.332 145.079 106.25C145.047 106.168 144.99 106.097 144.917 106.048L144.732 105.93C143.801 105.331 142.865 104.734 141.921 104.158C137.887 101.683 133.569 99.3681 128.864 98.5103C126.638 98.0942 124.358 98.0657 122.123 98.4259C119.762 98.8168 117.502 99.6325 115.264 100.451C113.058 101.261 110.845 102.096 108.538 102.566C106.289 103.009 103.98 103.054 101.715 102.701C97.3949 102.051 93.3358 100.31 89.2936 98.7353C85.2261 97.1518 81.035 95.6555 76.633 95.4586C72.2872 95.2618 67.9949 96.2912 63.8712 97.5681C55.4635 100.17 46.8788 104.028 37.9764 101.382C28.9363 98.6987 20.6215 90.9529 10.6031 93.2508C10.5083 93.2684 10.4238 93.3218 10.367 93.3998C10.3236 93.4689 10.3006 93.5489 10.3006 93.6305C10.3006 93.7121 10.3236 93.792 10.367 93.8611Z" fill="#63FF64"/>
<path d="M126.46 100.738C125.374 100.738 124.493 99.8563 124.493 98.769C124.493 97.6817 125.374 96.8002 126.46 96.8002C127.547 96.8002 128.428 97.6817 128.428 98.769C128.428 99.8563 127.547 100.738 126.46 100.738Z" fill="#63FF64"/>
<path d="M76.706 98.2065C75.6193 98.2065 74.7384 97.3251 74.7384 96.2377C74.7384 95.1504 75.6193 94.269 76.706 94.269C77.7928 94.269 78.6738 95.1504 78.6738 96.2377C78.6738 97.3251 77.7928 98.2065 76.706 98.2065Z" fill="#63FF64"/>
<path d="M15.9889 95.6752C14.9022 95.6752 14.0212 94.7938 14.0212 93.7064C14.0212 92.6191 14.9022 91.7376 15.9889 91.7376C17.0756 91.7376 17.9566 92.6191 17.9566 93.7064C17.9566 94.7938 17.0756 95.6752 15.9889 95.6752Z" fill="#63FF64"/>
<path d="M127.568 131.043C127.947 131.043 128.309 131.194 128.577 131.461C128.844 131.729 128.995 132.092 128.995 132.47C128.995 132.849 128.844 133.212 128.577 133.479C128.309 133.747 127.947 133.897 127.568 133.897H107.601C107.223 133.897 106.86 133.747 106.593 133.479C106.325 133.212 106.175 132.849 106.175 132.47C106.175 132.092 106.325 131.729 106.593 131.461C106.86 131.194 107.223 131.043 107.601 131.043H127.568Z" fill="#E6E6E6"/>
<path d="M140.404 137.703C137.429 137.703 135.016 135.289 135.016 132.312C135.016 129.334 137.429 126.921 140.404 126.921C143.38 126.921 145.792 129.334 145.792 132.312C145.792 135.289 143.38 137.703 140.404 137.703Z" fill="#63FF64"/>
<path d="M79.3934 131.043C79.7717 131.043 80.1345 131.194 80.4019 131.461C80.6694 131.729 80.8197 132.092 80.8197 132.47C80.8197 132.849 80.6694 133.212 80.4019 133.479C80.1345 133.747 79.7717 133.897 79.3934 133.897H59.4262C59.048 133.897 58.6852 133.747 58.4177 133.479C58.1503 133.212 58 132.849 58 132.47C58 132.092 58.1503 131.729 58.4177 131.461C58.6852 131.194 59.048 131.043 59.4262 131.043H79.3934Z" fill="#E6E6E6"/>
<path d="M92.2295 137.703C89.2538 137.703 86.8415 135.289 86.8415 132.312C86.8415 129.334 89.2538 126.921 92.2295 126.921C95.2052 126.921 97.6175 129.334 97.6175 132.312C97.6175 135.289 95.2052 137.703 92.2295 137.703Z" fill="#63FF64"/>
<path d="M31.2186 131.043C31.5968 131.043 31.9596 131.194 32.2271 131.461C32.4946 131.729 32.6448 132.092 32.6448 132.47C32.6448 132.849 32.4946 133.212 32.2271 133.479C31.9596 133.747 31.5968 133.897 31.2186 133.897H11.2514C10.8731 133.897 10.5103 133.747 10.2429 133.479C9.97539 133.212 9.82513 132.849 9.82513 132.47C9.82513 132.092 9.97539 131.729 10.2429 131.461C10.5103 131.194 10.8731 131.043 11.2514 131.043H31.2186Z" fill="#E6E6E6"/>
<path d="M44.0546 137.703C41.0789 137.703 38.6667 135.289 38.6667 132.312C38.6667 129.334 41.0789 126.921 44.0546 126.921C47.0303 126.921 49.4426 129.334 49.4426 132.312C49.4426 135.289 47.0303 137.703 44.0546 137.703Z" fill="#63FF64"/>
<path d="M12.7033 57.6653H87.1328C88.5837 57.6653 89.7596 56.8271 89.7612 55.7943V39.608C89.7596 38.5751 88.5837 37.737 87.1328 37.737H12.7033C11.2523 37.737 10.0765 38.5751 10.0749 39.608V55.794C10.0762 56.8268 11.2523 57.664 12.7033 57.6653ZM87.1328 38.4847C88.0034 38.4847 88.7089 38.9877 88.7099 39.6073V55.7933C88.7099 56.413 88.0034 56.9153 87.1328 56.9159H12.7033C11.8326 56.9159 11.1271 56.413 11.1262 55.7933V39.608C11.1262 38.9883 11.8326 38.486 12.7033 38.4854L87.1328 38.4847Z" fill="#E6E6E6"/>
<path d="M70.3039 46.9356C70.724 46.9361 71.1268 47.1033 71.4239 47.4006C71.721 47.6978 71.8881 48.1009 71.8886 48.5212V59.6203C71.8881 60.0407 71.721 60.4437 71.4239 60.741C71.1268 61.0382 70.724 61.2054 70.3039 61.2059H13.5717C13.1515 61.2054 12.7487 61.0382 12.4516 60.741C12.1546 60.4437 11.9874 60.0407 11.987 59.6203V48.5212C11.9874 48.1009 12.1546 47.6978 12.4516 47.4006C12.7487 47.1033 13.1515 46.9361 13.5717 46.9356H70.3039Z" fill="#63FF64"/>
<path d="M62.3804 57.7176C60.4549 57.7176 58.8941 56.1559 58.8941 54.2293C58.8941 52.3028 60.4549 50.741 62.3804 50.741C64.3058 50.741 65.8667 52.3028 65.8667 54.2293C65.8667 56.1559 64.3058 57.7176 62.3804 57.7176Z" fill="white"/>
<path d="M46.4916 52.7152C46.8699 52.7152 47.2326 52.8656 47.5001 53.1332C47.7676 53.4008 47.9178 53.7638 47.9178 54.1423C47.9178 54.5207 47.7676 54.8837 47.5001 55.1513C47.2326 55.4189 46.8699 55.5693 46.4916 55.5693H26.5244C26.1461 55.5693 25.7834 55.4189 25.5159 55.1513C25.2484 54.8837 25.0982 54.5207 25.0982 54.1423C25.0982 53.7638 25.2484 53.4008 25.5159 53.1332C25.7834 52.8656 26.1461 52.7152 26.5244 52.7152H46.4916Z" fill="white"/>
<path d="M68.4847 19.9283H142.914C144.365 19.9283 145.541 19.0901 145.543 18.0573V1.871C145.541 0.838144 144.365 0 142.914 0H68.4847C67.0337 0 65.8579 0.838144 65.8563 1.871V18.057C65.8576 19.0898 67.0337 19.927 68.4847 19.9283ZM142.914 0.747763C143.785 0.747763 144.49 1.25071 144.491 1.87036V18.0563C144.491 18.676 143.785 19.1783 142.914 19.1789H68.4847C67.614 19.1789 66.9085 18.676 66.9076 18.0563V1.871C66.9076 1.25135 67.614 0.749031 68.4847 0.748397L142.914 0.747763Z" fill="#E6E6E6"/>
<path d="M126.085 9.19867C126.505 9.19916 126.908 9.36637 127.205 9.66362C127.502 9.96087 127.67 10.3639 127.67 10.7843V21.8834C127.67 22.3037 127.502 22.7067 127.205 23.004C126.908 23.3012 126.505 23.4685 126.085 23.469H69.3531C68.9329 23.4685 68.5302 23.3012 68.2331 23.004C67.936 22.7067 67.7689 22.3037 67.7684 21.8834V10.7843C67.7689 10.3639 67.936 9.96087 68.2331 9.66362C68.5302 9.36637 68.9329 9.19916 69.3531 9.19867H126.085Z" fill="#63FF64"/>
<path d="M118.162 19.9807C116.236 19.9807 114.676 18.4189 114.676 16.4924C114.676 14.5659 116.236 13.0041 118.162 13.0041C120.087 13.0041 121.648 14.5659 121.648 16.4924C121.648 18.4189 120.087 19.9807 118.162 19.9807Z" fill="white"/>
<path d="M102.273 14.9783C102.651 14.9783 103.014 15.1286 103.282 15.3962C103.549 15.6638 103.699 16.0268 103.699 16.4053C103.699 16.7838 103.549 17.1467 103.282 17.4143C103.014 17.682 102.651 17.8323 102.273 17.8323H82.3058C81.9276 17.8323 81.5648 17.682 81.2973 17.4143C81.0299 17.1467 80.8796 16.7838 80.8796 16.4053C80.8796 16.0268 81.0299 15.6638 81.2973 15.3962C81.5648 15.1286 81.9276 14.9783 82.3058 14.9783H102.273Z" fill="white"/>
</g>
<defs>
<clipPath id="clip0">
<rect width="261" height="171" fill="white" transform="matrix(-1 0 0 1 261 0)"/>
</clipPath>
</defs>
</svg>
