<svg width="268" height="173" viewBox="0 0 268 173" fill="none" xmlns="http://www.w3.org/2000/svg">
<path d="M244.349 138.173C242.617 138.173 241.213 136.766 241.213 135.03C241.213 133.295 242.617 131.888 244.349 131.888C246.081 131.888 247.485 133.295 247.485 135.03C247.485 136.766 246.081 138.173 244.349 138.173Z" fill="#D0CDE1"/>
<path d="M252.189 150.48C249.303 150.48 246.962 148.135 246.962 145.243C246.962 142.35 249.303 140.006 252.189 140.006C255.076 140.006 257.416 142.35 257.416 145.243C257.416 148.135 255.076 150.48 252.189 150.48Z" fill="#63FF64"/>
<path d="M190.904 37.5129C185.1 37.5129 180.396 32.7987 180.396 26.9835C180.396 21.1683 185.1 16.4541 190.904 16.4541C196.708 16.4541 201.412 21.1683 201.412 26.9835C201.412 32.7987 196.708 37.5129 190.904 37.5129Z" fill="#2F2E41"/>
<path d="M175.967 90.7656L174.374 93.9584C174.374 93.9584 169.276 102.259 172.781 103.217C176.286 104.175 177.401 96.9915 177.401 96.9915L178.038 93.1602L175.967 90.7656Z" fill="#A0616A"/>
<path d="M182.34 74.4826L178.357 85.0185L174.374 92.3619L179.313 95.5548L183.296 88.5306L188.075 77.5157L182.34 74.4826Z" fill="#D0CDE1"/>
<path d="M193.651 123.81L201.617 132.271L215.637 156.057L221.691 154.141L214.522 139.934C214.522 139.934 210.38 129.078 208.309 127.642C206.237 126.205 202.732 116.786 202.732 116.786L198.909 113.753L193.651 123.81Z" fill="#A0616A"/>
<path d="M177.242 128.44L176.604 131.154C176.604 131.154 174.533 139.615 171.347 143.446L163.7 156.696L157.964 154.78L169.276 127.961L177.242 128.44Z" fill="#A0616A"/>
<path d="M189.111 39.2827C184.359 39.2827 180.508 35.4232 180.508 30.6623C180.508 25.9014 184.359 22.0419 189.111 22.0419C193.862 22.0419 197.714 25.9014 197.714 30.6623C197.714 35.4232 193.862 39.2827 189.111 39.2827Z" fill="#A0616A"/>
<path d="M195.882 34.8927L196.997 44.1516L189.828 47.6636C189.828 47.6636 189.828 39.6818 187.916 37.6065L195.882 34.8927Z" fill="#A0616A"/>
<path d="M218.345 94.5969L219.142 97.3107C219.142 97.3107 224.4 107.687 219.939 107.687C215.478 107.687 214.681 98.1089 214.681 98.1089L214.203 95.7144L218.345 94.5969Z" fill="#A0616A"/>
<path d="M181.703 83.7416L182.818 91.5638L169.276 120.139L168.479 128.44L193.811 131.633L199.387 116.148L208.309 127.642L203.21 115.829C203.21 115.829 201.617 107.847 202.095 105.771C202.573 103.696 201.777 93.3198 200.343 90.7656C198.909 88.2114 181.703 83.7416 181.703 83.7416Z" fill="#2F2E41"/>
<path d="M214.681 156.057L222.328 153.503L224.718 157.334C224.718 157.334 229.338 158.611 229.179 161.964C229.02 165.316 229.976 171.063 229.976 171.063L226.63 171.382L225.355 164.837L218.823 172.659C218.823 172.659 207.193 173.298 206.715 171.382C206.237 169.467 215 167.391 215 167.391L216.434 160.527L214.681 156.057Z" fill="#2F2E41"/>
<path d="M157.486 153.822L164.496 156.057V157.653C164.496 157.653 166.567 160.846 166.249 163.56C165.93 166.274 164.496 172.819 164.496 172.819H160.832L160.991 166.753L153.663 172.819C153.663 172.819 140.599 171.861 140.599 169.786C140.599 167.711 150.636 166.274 150.636 166.274L157.486 153.822Z" fill="#2F2E41"/>
<path d="M189.35 45.748C189.35 45.748 195.882 39.2029 198.909 40.7992V43.6727C198.909 43.6727 203.37 45.748 203.529 48.9407C203.688 52.1334 208.309 81.1874 208.309 81.1874L219.142 119.021C219.142 119.021 215.796 124.289 203.529 118.383L195.882 92.362C195.882 92.362 204.007 121.735 200.024 121.256C196.041 120.777 180.428 84.3801 180.428 84.3801L181.543 67.1393C181.543 67.1393 178.994 59.6364 184.092 54.528L189.35 45.748Z" fill="#D0CDE1"/>
<path d="M200.502 46.7058C200.502 46.7058 203.21 47.6636 205.122 51.8142C207.034 55.9647 216.593 85.1783 216.593 85.1783L219.142 95.5547L211.973 97.3107L208.468 86.615L195.404 62.3502C195.404 62.3502 193.333 49.5793 200.502 46.7058Z" fill="#D0CDE1"/>
<path d="M199.872 23.7853C199.711 21.8148 198.77 19.795 197.029 18.865C197.903 17.1053 198.684 15.0968 198.108 13.2178C197.874 12.4888 197.451 11.8354 196.881 11.3248C196.312 10.8142 195.617 10.4648 194.868 10.3127C194.032 10.1974 193.183 10.2084 192.35 10.3453L188.425 10.7915C187.151 10.9362 185.828 11.0977 184.745 11.7843C184.181 12.1417 183.709 12.6267 183.366 13.2003C183.024 13.774 182.82 14.4202 182.772 15.087C182.725 15.7538 182.834 16.4225 183.091 17.0394C183.348 17.6563 183.746 18.2041 184.253 18.6387C181.506 20.84 179.671 22.5111 178.421 25.8054C180.711 23.958 182.903 23.3038 185.839 23.1445C187.677 23.0449 189.481 23.6672 190.868 24.8794C192.255 26.0916 193.116 27.798 193.267 29.636C193.343 30.5553 193.242 31.5018 193.509 32.3846C193.776 33.2673 194.58 34.0944 195.492 33.9654C195.365 33.9833 194.587 31.6417 195.135 30.5608L195.143 30.5434C195.264 30.32 195.463 30.1492 195.701 30.0638C195.914 29.982 196.142 29.9465 196.37 29.9597C196.597 29.973 196.819 30.0346 197.022 30.1405C197.224 30.2464 197.401 30.3942 197.541 30.574C197.682 30.7538 197.783 30.9616 197.837 31.1834C198.142 32.3562 198.63 33.8527 199.055 33.4555C199.613 32.9353 199.379 28.3484 199.529 27.6374C199.83 26.3768 199.945 25.0792 199.872 23.7853Z" fill="#2F2E41"/>
<path d="M196.985 18.8335C196.985 18.8335 188.351 19.3977 184.221 18.6454L196.985 18.8335Z" fill="#D0CDE1"/>
<path d="M196.496 17.6758C197.37 15.9161 198.151 13.9076 197.575 12.0287C197.306 11.1816 196.779 10.4399 196.069 9.90731C196.611 10.1573 197.096 10.5175 197.493 10.9651C197.889 11.4127 198.188 11.938 198.372 12.5076C198.948 14.3865 198.167 16.395 197.292 18.1547C196.599 18.051 198.237 18.6058 196.496 17.6758Z" fill="#2F2E41"/>
<path opacity="0.2" d="M193.731 62.4299L206.158 84.46L210.937 96.4328L204.246 84.939L193.731 62.4299Z" fill="black"/>
<path d="M250.516 148.385H251.039V172.738H250.516V148.385Z" fill="#3F3D56"/>
<path d="M250.621 148.909C251.707 148.909 252.768 148.586 253.67 147.982C254.573 147.378 255.276 146.519 255.691 145.514C256.107 144.509 256.216 143.404 256.004 142.337C255.792 141.27 255.269 140.29 254.502 139.521C253.734 138.752 252.756 138.229 251.692 138.016C250.627 137.804 249.524 137.913 248.521 138.329C247.518 138.745 246.661 139.45 246.058 140.355C245.455 141.259 245.133 142.322 245.133 143.41C245.135 144.868 245.713 146.265 246.742 147.296C247.771 148.327 249.166 148.907 250.621 148.909ZM250.621 138.434C251.603 138.434 252.563 138.726 253.38 139.273C254.196 139.82 254.833 140.597 255.209 141.506C255.584 142.415 255.683 143.415 255.491 144.38C255.3 145.345 254.827 146.232 254.132 146.928C253.438 147.624 252.553 148.098 251.59 148.289C250.627 148.481 249.628 148.383 248.721 148.006C247.814 147.63 247.038 146.992 246.493 146.174C245.947 145.356 245.656 144.394 245.656 143.41C245.657 142.091 246.181 140.826 247.112 139.893C248.043 138.961 249.305 138.436 250.621 138.434Z" fill="#3F3D56"/>
<path d="M246.178 139.482C246.85 139.482 247.507 139.282 248.066 138.908C248.625 138.534 249.06 138.002 249.317 137.38C249.574 136.758 249.642 136.074 249.511 135.414C249.379 134.753 249.056 134.147 248.581 133.671C248.106 133.194 247.5 132.87 246.841 132.739C246.182 132.608 245.499 132.675 244.878 132.933C244.258 133.19 243.727 133.627 243.354 134.186C242.98 134.746 242.781 135.404 242.781 136.078C242.782 136.98 243.14 137.845 243.777 138.484C244.414 139.122 245.278 139.481 246.178 139.482ZM246.178 133.197C246.747 133.197 247.303 133.366 247.776 133.683C248.248 133.999 248.617 134.449 248.834 134.975C249.052 135.502 249.109 136.081 248.998 136.64C248.887 137.198 248.613 137.712 248.211 138.114C247.809 138.517 247.297 138.792 246.739 138.903C246.182 139.014 245.604 138.957 245.078 138.739C244.553 138.521 244.104 138.152 243.788 137.678C243.472 137.204 243.304 136.647 243.304 136.078C243.305 135.314 243.608 134.582 244.147 134.042C244.686 133.502 245.416 133.198 246.178 133.197Z" fill="#3F3D56"/>
<path d="M138.787 72.7619C137.055 72.7619 135.651 71.355 135.651 69.6196C135.651 67.8841 137.055 66.4772 138.787 66.4772C140.519 66.4772 141.923 67.8841 141.923 69.6196C141.923 71.355 140.519 72.7619 138.787 72.7619Z" fill="#D0CDE1"/>
<path d="M150.385 69.2919C147.498 69.2919 145.158 66.9471 145.158 64.0547C145.158 61.1623 147.498 58.8175 150.385 58.8175C153.271 58.8175 155.611 61.1623 155.611 64.0547C155.611 66.9471 153.271 69.2919 150.385 69.2919Z" fill="#63FF64"/>
<path d="M148.281 70.7121C149.691 70.7121 151.047 70.1699 152.07 69.1974C153.093 68.2248 153.705 66.896 153.779 65.485C153.853 64.0739 153.384 62.6881 152.469 61.6132C151.554 60.5384 150.261 59.8565 148.859 59.7081C147.457 59.5597 146.051 59.9561 144.931 60.8156C143.812 61.6751 143.065 62.9321 142.843 64.3276C142.621 65.7231 142.942 67.1506 143.74 68.3158C144.538 69.4811 145.751 70.2952 147.13 70.5904C147.509 70.6711 147.894 70.7119 148.281 70.7121ZM148.26 60.2342C148.609 60.2344 148.958 60.2712 149.3 60.3442C150.589 60.6181 151.715 61.3936 152.433 62.5C153.151 63.6064 153.4 64.9532 153.127 66.244C152.854 67.5348 152.08 68.6639 150.975 69.383C149.871 70.102 148.527 70.3521 147.239 70.0782C146.04 69.8225 144.977 69.1314 144.256 68.1378C143.535 67.1442 143.206 65.9184 143.332 64.6964C143.459 63.4743 144.033 62.3425 144.942 61.5187C145.852 60.6949 147.034 60.2374 148.26 60.2342Z" fill="#3F3D56"/>
<path d="M140.196 71.4492C141.069 71.4492 141.909 71.1135 142.542 70.5115C143.175 69.9094 143.554 69.0869 143.6 68.2134C143.646 67.34 143.355 66.4822 142.788 65.8169C142.222 65.1516 141.422 64.7296 140.554 64.6378C139.686 64.5459 138.816 64.7914 138.123 65.3234C137.43 65.8555 136.967 66.6336 136.83 67.4974C136.693 68.3612 136.892 69.2448 137.386 69.9661C137.879 70.6873 138.631 71.1912 139.484 71.3739C139.718 71.4238 139.957 71.4491 140.196 71.4492ZM140.189 65.163C140.783 65.1628 141.363 65.3472 141.848 65.6907C142.334 66.0342 142.701 66.52 142.9 67.0812C143.098 67.6424 143.118 68.2516 142.957 68.8247C142.796 69.3979 142.462 69.907 142 70.2819C141.538 70.6568 140.972 70.8792 140.379 70.9184C139.786 70.9575 139.196 70.8116 138.689 70.5007C138.182 70.1897 137.784 69.7291 137.549 69.182C137.314 68.635 137.254 68.0285 137.377 67.446C137.514 66.8002 137.868 66.221 138.38 65.8054C138.891 65.3898 139.53 65.163 140.189 65.163H140.189Z" fill="#3F3D56"/>
<path d="M61.2934 17.6375C59.5614 17.6375 58.1573 16.2306 58.1573 14.4952C58.1573 12.7597 59.5614 11.3528 61.2934 11.3528C63.0253 11.3528 64.4294 12.7597 64.4294 14.4952C64.4294 16.2306 63.0253 17.6375 61.2934 17.6375Z" fill="#D0CDE1"/>
<path d="M52.3497 10.4749C49.4631 10.4749 47.123 8.13012 47.123 5.23769C47.123 2.34526 49.4631 0.000476837 52.3497 0.000476837C55.2364 0.000476837 57.5764 2.34526 57.5764 5.23769C57.5764 8.13012 55.2364 10.4749 52.3497 10.4749Z" fill="#63FF64"/>
<path d="M54.1108 12.3805C54.8842 12.3806 55.6489 12.2171 56.3547 11.9005C57.0606 11.5839 57.6918 11.1215 58.207 10.5436C58.7222 9.96559 59.1096 9.2851 59.3441 8.54664C59.5785 7.80819 59.6547 7.02843 59.5675 6.25845C59.4475 5.20442 59.0259 4.20766 58.3533 3.38833C57.6808 2.569 56.7861 1.96209 55.7771 1.64076C54.7681 1.31943 53.6879 1.2974 52.6667 1.57734C51.6455 1.85727 50.7269 2.42721 50.0216 3.21845C49.3164 4.00968 48.8546 4.98844 48.692 6.03671C48.5293 7.08497 48.6728 8.158 49.105 9.12643C49.5372 10.0949 50.2398 10.9173 51.128 11.4947C52.0162 12.0721 53.0521 12.3797 54.1108 12.3805ZM59.0484 6.31779C59.1785 7.46147 58.9088 8.61497 58.2852 9.58175C57.6617 10.5485 56.7229 11.2688 55.6288 11.6197C54.5347 11.9707 53.3531 11.9307 52.2851 11.5065C51.2172 11.0823 50.329 10.3003 49.7721 9.29351C49.2151 8.28676 49.0237 7.11765 49.2306 5.98537C49.4374 4.85309 50.0296 3.8277 50.9064 3.08392C51.7831 2.34013 52.8902 1.92397 54.0388 1.90634C55.1875 1.88872 56.3067 2.27071 57.2057 2.98725C58.2359 3.80908 58.8986 5.00689 59.0484 6.31779Z" fill="#3F3D56"/>
<path d="M59.3508 17.0666C59.4816 17.0666 59.6122 17.0592 59.7421 17.0444C60.6369 16.9411 61.4543 16.4865 62.015 15.7801C62.5757 15.0737 62.8339 14.1734 62.7329 13.2765C62.6585 12.6243 62.3976 12.0076 61.9814 11.5006C61.5653 10.9936 61.0117 10.618 60.3874 10.4191C59.7631 10.2201 59.0947 10.2063 58.4627 10.3793C57.8307 10.5522 57.2622 10.9046 56.8255 11.394C56.3888 11.8833 56.1027 12.4888 56.0016 13.1373C55.9004 13.7859 55.9886 14.4499 56.2555 15.0494C56.5224 15.6489 56.9566 16.1583 57.5058 16.5162C58.055 16.8741 58.6957 17.0652 59.3508 17.0666V17.0666ZM62.2138 13.3359C62.2782 13.902 62.1737 14.4745 61.9134 14.9811C61.6531 15.4876 61.2487 15.9055 60.7514 16.1817C60.254 16.458 59.6861 16.5803 59.1195 16.5331C58.5528 16.486 58.0128 16.2715 57.5677 15.9168C57.1227 15.5622 56.7927 15.0832 56.6193 14.5406C56.4459 13.9979 56.4371 13.4159 56.5938 12.8682C56.7506 12.3206 57.0659 11.8317 57.4999 11.4636C57.9339 11.0955 58.4671 10.8646 59.0321 10.8001C59.7894 10.7146 60.5497 10.9335 61.1461 11.4089C61.7426 11.8842 62.1265 12.5772 62.2138 13.3359Z" fill="#3F3D56"/>
<path d="M61.4139 35.785H114.726V96.5367H61.4139V35.785Z" fill="#D0CDE1"/>
<path d="M8.10141 35.785H62.7206V96.5367H8.10141V35.785Z" fill="#3F3D56"/>
<path d="M61.4139 44.1646H114.726V54.1153H61.4139V44.1646Z" fill="#63FF64"/>
<path d="M8.10141 44.1646H61.4139V54.1153H8.10141V44.1646Z" fill="#D0CDE1"/>
<path d="M61.4139 77.4209H114.726V87.3716H61.4139V77.4209Z" fill="#3F3D56"/>
<path d="M8.10141 77.4209H61.4139V87.3716H8.10141V77.4209Z" fill="#63FF64"/>
<path d="M62.7206 38.9274V93.3944C55.5123 93.3944 48.5992 90.5251 43.5022 85.4179C38.4052 80.3106 35.5417 73.3836 35.5417 66.1609C35.5417 58.9381 38.4052 52.0111 43.5022 46.9039C48.5992 41.7966 55.5123 38.9274 62.7206 38.9274Z" fill="#D0CDE1"/>
<path d="M89.8996 66.1609C89.8996 69.7372 89.1966 73.2785 87.8307 76.5827C86.4648 79.8868 84.4628 82.889 81.939 85.4179C76.842 90.5251 69.9289 93.3944 62.7206 93.3944V38.9274C69.9289 38.9274 76.842 41.7966 81.939 46.9039C87.0361 52.0111 89.8996 58.9381 89.8996 66.1609Z" fill="#63FF64"/>
<path d="M76.8328 66.1609C76.8328 69.9112 75.346 73.5078 72.6994 76.1597C70.0529 78.8115 66.4634 80.3013 62.7206 80.3013V52.0204C66.4634 52.0204 70.0529 53.5102 72.6994 56.162C75.346 58.8139 76.8328 62.4106 76.8328 66.1609Z" fill="#3F3D56"/>
<path d="M48.6085 66.1609C48.6085 69.9112 50.0953 73.5078 52.7418 76.1597C55.3884 78.8115 58.9778 80.3013 62.7206 80.3013V52.0204C58.9778 52.0204 55.3884 53.5102 52.7418 56.162C50.0953 58.8139 48.6085 62.4106 48.6085 66.1609Z" fill="#63FF64"/>
<path d="M0 107.273H122.828V25.0487H0V107.273ZM122.305 106.749H0.522675V25.5725H122.305V106.749Z" fill="#3F3D56"/>
<path d="M116.164 172.476H268V173H116.164V172.476Z" fill="#3F3D56"/>
</svg>
