<svg width="158" height="112" viewBox="0 0 158 112" fill="none" xmlns="http://www.w3.org/2000/svg">
<g clip-path="url(#clip0)">
<path d="M14.6299 100.173C22.677 100.173 29.2005 99.7124 29.2005 99.1444C29.2005 98.5764 22.677 98.1159 14.6299 98.1159C6.58281 98.1159 0.0593338 98.5764 0.0593338 99.1444C0.0593338 99.7124 6.58281 100.173 14.6299 100.173Z" fill="#D0CDE1"/>
<path d="M58.8556 112C79.7781 112 96.7391 111.194 96.7391 110.2C96.7391 109.206 79.7781 108.4 58.8556 108.4C37.9331 108.4 20.972 109.206 20.972 110.2C20.972 111.194 37.9331 112 58.8556 112Z" fill="#D0CDE1"/>
<path d="M78.5687 37.4373L79.2544 36.2375L75.826 35.5518L75.4832 37.2659L75.9974 38.6372L78.5687 37.4373Z" fill="#63FF64"/>
<path opacity="0.2" d="M78.5687 37.4373L79.2544 36.2375L75.826 35.5518L75.4832 37.2659L75.9974 38.6372L78.5687 37.4373Z" fill="black"/>
<path d="M76.5974 36.6659C79.0589 36.6659 81.0543 34.6706 81.0543 32.2093C81.0543 29.748 79.0589 27.7527 76.5974 27.7527C74.1359 27.7527 72.1405 29.748 72.1405 32.2093C72.1405 34.6706 74.1359 36.6659 76.5974 36.6659Z" fill="#FFB8B8"/>
<path d="M72.8262 32.2094L69.2264 38.2087L74.5404 41.2941L77.2831 34.9519L72.8262 32.2094Z" fill="#FFB8B8"/>
<path d="M72.4834 39.2371L67.8551 37.3516C67.8551 37.3516 60.8269 38.5514 60.1412 40.7797C59.4555 43.008 59.4555 61.0059 59.4555 61.0059C59.4555 61.0059 57.7413 65.4626 60.1412 65.634C60.1412 65.634 59.4555 66.6624 60.1412 66.8338C60.8269 67.0052 67.8551 66.8338 70.5978 67.6909C73.3405 68.5479 78.8259 69.2336 78.8259 68.3765V66.8338C78.8259 66.8338 80.0258 65.634 79.3401 63.5771C78.6544 61.5202 77.7973 57.0635 77.7973 57.0635C77.7973 57.0635 82.9399 45.7506 82.4256 44.3793C81.9114 43.008 75.6328 38.7678 75.6328 38.7678L72.4834 39.2371Z" fill="#63FF64"/>
<path d="M61.8554 61.006L62.0268 62.3773L64.4267 59.4633H63.5696L61.8554 61.006Z" fill="#FFB8B8"/>
<path d="M72.4834 39.2371L67.5122 38.0372C67.5122 38.0372 66.4837 37.1802 66.4837 36.1517C66.4837 35.1232 68.0265 33.5806 69.055 32.5521C69.1445 32.4603 69.2518 32.3876 69.3702 32.3384C69.4887 32.2892 69.6158 32.2645 69.7441 32.2659C70.7623 32.2573 71.9965 33.5926 71.9965 33.5926L70.6269 35.8774L70.5652 35.9786L72.4834 39.2371Z" fill="#63FF64"/>
<path d="M76.3151 37.1902L79.2544 36.2374C79.2544 36.2374 80.1972 39.9227 79.1687 40.0941C78.1402 40.2655 72.4834 39.7513 72.4834 39.7513L76.3151 37.1902Z" fill="#63FF64"/>
<path d="M60.484 65.9768L58.2556 78.661C58.2556 78.661 57.3985 80.2037 57.7413 80.8894C58.0842 81.575 58.2556 81.575 57.7413 81.9178C57.2271 82.2606 56.5414 81.9178 56.7128 82.7749C56.8156 83.283 56.8729 83.7992 56.8843 84.3175L52.0845 100.773C52.0845 100.773 48.999 102.144 51.2274 103.001C53.4559 103.858 55.6843 104.544 56.1986 103.687C56.7128 102.83 56.1986 101.801 56.1986 101.801L64.0838 82.9463C64.0838 82.9463 65.2838 81.2322 65.2838 80.2037C65.2838 79.1753 69.2264 71.8047 69.2264 71.8047C69.2264 71.8047 69.3978 79.1753 69.5692 79.6895C69.7407 80.2037 69.2264 81.2322 69.2264 81.9178C69.2264 82.6034 68.8836 82.6034 69.2264 82.9463C69.5692 83.2891 69.5692 87.2315 69.5692 87.2315C69.5692 87.2315 67.5122 102.487 68.7121 102.658C69.9121 102.83 73.3405 102.487 73.3405 101.801C73.3405 101.116 72.8262 100.944 72.8262 100.944L75.0546 87.9171C75.0546 87.9171 74.8832 87.0601 75.2261 86.3744C75.5689 85.6888 75.5689 85.6888 75.5689 85.346C75.5689 85.0032 75.3975 84.8318 75.5689 84.6604C75.6809 84.5124 75.7411 84.3317 75.7403 84.1461C75.7403 84.1461 75.3975 83.1177 75.5689 82.9463C75.7403 82.7749 79.5115 69.9192 78.3116 68.3765C77.1117 66.8339 60.484 65.9768 60.484 65.9768Z" fill="#2F2E41"/>
<path d="M68.8836 102.144L67.6836 104.887C67.6836 104.887 64.9409 107.972 66.9979 108.658C69.055 109.343 69.7406 109.172 69.7406 109.172C69.7406 109.172 70.5977 109.343 70.5977 109.686C70.5977 110.029 77.4545 112.6 77.9687 110.372C78.483 108.143 72.6548 104.03 72.6548 104.03V101.973L68.8836 102.144Z" fill="#2F2E41"/>
<path d="M55.6612 103.413L55.9208 106.396C55.9208 106.396 57.5324 110.196 55.3641 110.188C53.1958 110.18 52.601 109.798 52.601 109.798C52.601 109.798 51.7341 109.686 51.6245 110.011C51.5148 110.336 44.1958 110.579 44.4214 108.303C44.647 106.027 51.485 103.994 51.485 103.994L52.143 102.045L55.6612 103.413Z" fill="#2F2E41"/>
<path d="M72.2564 33.4293C72.5317 33.4109 72.7153 33.1108 72.7915 32.8253C72.8677 32.5398 72.8871 32.227 73.0426 31.9817C73.4687 31.3095 74.5768 31.581 75.0268 30.927C75.3035 30.5248 75.2456 29.8699 75.6451 29.614C75.8974 29.4524 76.219 29.5356 76.4969 29.6372C77.5743 30.0337 78.5691 30.6261 79.4309 31.3845L79.7889 31.0931L80.236 31.9868C80.4093 31.7778 80.7436 31.9399 80.8891 32.1722C81.0345 32.4046 81.1051 32.7016 81.3126 32.8708C81.6432 33.1406 82.1596 32.9121 82.3599 32.5209C82.5601 32.1298 82.527 31.6515 82.4576 31.2112C82.2847 30.1079 81.9162 29.0444 81.3694 28.0706L81.7784 27.8252L81.2496 27.7497L81.452 27.2905L80.898 27.2841L81.1168 26.8916C80.372 27.1471 79.6025 26.6791 78.8912 26.3301C77.7014 25.7465 76.363 25.4664 75.0712 25.6832C74.4094 25.7906 73.7771 26.0348 73.2148 26.4C72.6524 26.7653 72.1724 27.2437 71.8051 27.8047C71.2419 28.6902 70.9166 29.976 71.1982 31.0364C71.4541 32.0003 72.5715 32.1503 72.2564 33.4293Z" fill="#2F2E41"/>
<path d="M61.1697 40.0941C61.1697 40.0941 60.1412 39.9227 59.4555 41.294C58.7699 42.6652 53.6273 53.6354 56.1986 57.0636C58.7699 60.4917 61.1697 61.5202 61.1697 61.5202L61.684 61.6916L64.2553 58.9491L63.3982 57.7492C63.3982 57.7492 63.3982 56.5493 62.7125 56.3779C62.0268 56.2065 62.0268 56.7207 61.8554 56.0351C61.684 55.3495 62.5411 55.8637 61.684 55.1781C60.8269 54.4924 61.5126 54.1496 61.5126 54.1496L61.1697 40.0941Z" fill="#63FF64"/>
<path d="M79.3401 62.9772L79.1687 64.3485L76.7688 61.4346H77.6259L79.3401 62.9772Z" fill="#FFB8B8"/>
<path d="M79.083 43.7794C79.083 43.7794 81.4828 42.5795 82.1685 43.9508C82.8542 45.3221 87.5682 55.6066 84.9969 59.0348C82.4256 62.4629 80.0258 63.4914 80.0258 63.4914L79.5115 63.6628L76.9402 60.9203L77.7973 59.7204C77.7973 59.7204 77.7973 58.5205 78.483 58.3491C79.1687 58.1777 79.1687 58.6919 79.3401 58.0063C79.5115 57.3207 78.6544 57.8349 79.5115 57.1493C80.3686 56.4636 79.6829 56.1208 79.6829 56.1208L79.083 43.7794Z" fill="#63FF64"/>
<path opacity="0.2" d="M62.7982 46.8648L60.9126 54.4068L63.141 57.1493L62.1125 53.7212L62.7982 46.8648Z" fill="black"/>
<path opacity="0.2" d="M71.9965 33.5926L70.6269 35.8775C69.7664 35.5792 69.6944 33.5823 69.7441 32.2659C70.7623 32.2573 71.9965 33.5926 71.9965 33.5926Z" fill="black"/>
<path d="M42.8732 105.532C42.903 108.582 41.1 109.665 38.8633 109.687C38.8114 109.687 38.7597 109.687 38.7082 109.686C38.6045 109.685 38.5019 109.681 38.4003 109.675C36.3803 109.552 34.8008 108.448 34.7732 105.611C34.7445 102.676 38.4604 98.9345 38.7391 98.6579L38.7396 98.6576C38.7502 98.6471 38.7556 98.6418 38.7556 98.6418C38.7556 98.6418 42.8434 102.482 42.8732 105.532Z" fill="#D0CDE1"/>
<path d="M37.0468 90.8196C37.0678 92.9726 35.7951 93.7367 34.2163 93.7521C34.1796 93.7525 34.1431 93.7524 34.1068 93.752C34.0336 93.7511 33.9611 93.7485 33.8895 93.7441C32.4635 93.6571 31.3486 92.8777 31.3291 90.8754C31.3089 88.8033 33.9318 86.1625 34.1286 85.9672L34.1289 85.967C34.1364 85.9596 34.1402 85.9558 34.1402 85.9558C34.1402 85.9558 37.0258 88.6668 37.0468 90.8196Z" fill="#D0CDE1"/>
<path d="M34.1713 94.1752C39.8516 94.1752 44.4564 93.8502 44.4564 93.4493C44.4564 93.0483 39.8516 92.7233 34.1713 92.7233C28.491 92.7233 23.8862 93.0483 23.8862 93.4493C23.8862 93.8502 28.491 94.1752 34.1713 94.1752Z" fill="#D0CDE1"/>
<path d="M158 47.962H89.9893V82.5865H158V47.962Z" fill="#3F3D56"/>
<path d="M109.215 59.6208H102.328V60.1948H109.215V59.6208Z" fill="#63FF64"/>
<path d="M118.399 59.6208H111.511V60.1948H118.399V59.6208Z" fill="#63FF64"/>
<path d="M131.743 64.9297H124.856V65.5036H131.743V64.9297Z" fill="#63FF64"/>
<path d="M141.07 64.9297H134.183V65.5036H141.07V64.9297Z" fill="#63FF64"/>
<path d="M141.07 59.6208H120.838V60.1948H141.07V59.6208Z" fill="#63FF64"/>
<path d="M122.56 64.9297H102.328V65.5036H122.56V64.9297Z" fill="#63FF64"/>
<path d="M122.56 70.2386H102.328V70.8125H122.56V70.2386Z" fill="#63FF64"/>
<path d="M141.07 70.2386H127.008V70.8125H141.07V70.2386Z" fill="#63FF64"/>
<path d="M100.392 62.0437L97.9685 59.6209L100.392 57.1979L100.876 57.6826L98.938 59.6209L100.876 61.559L100.392 62.0437Z" fill="#63FF64"/>
<path d="M147.598 73.2355L147.113 72.7508L149.051 70.8123L147.113 68.8742L147.598 68.3895L150.021 70.8123L147.598 73.2355Z" fill="#63FF64"/>
<path d="M145.047 68.2739L143.612 73.0087L144.268 73.2076L145.703 68.4728L145.047 68.2739Z" fill="#63FF64"/>
<path d="M15.9095 94.5629L28.6062 75.6829L15.9355 96.594L15.962 98.7185C15.0351 98.7256 14.1172 98.7102 13.2083 98.6722L13.838 71.3635L13.8208 71.1528L13.844 71.1121L13.9043 68.5316L-7.62939e-06 48.3453L13.8879 66.6002L13.9372 67.1456L14.4128 46.5128L2.40325 25.5843L14.447 42.8882L14.3213 0.1423L14.3216 3.05176e-05L14.3257 0.139953L15.1229 33.8295L26.0682 20.1448L15.1587 36.7318L15.3976 55.1873L25.4695 37.1754L15.4346 57.9006L15.5676 68.1629L30.2149 43.0724L15.6121 71.7429L15.9095 94.5629Z" fill="#D0CDE1"/>
</g>
<defs>
<clipPath id="clip0">
<rect width="158" height="112" fill="white"/>
</clipPath>
</defs>
</svg>
