<svg width="199" height="161" viewBox="0 0 199 161" fill="none" xmlns="http://www.w3.org/2000/svg">
<path d="M120.564 154.65H199V155.081H120.564V154.65Z" fill="#3F3D56"/>
<path d="M14.5337 82.5206L14.8067 82.4182C14.8667 82.3956 20.8387 80.1068 23.6362 74.9172C26.4339 69.7272 25.064 63.4786 25.0498 63.4162L24.9853 63.1316L24.7124 63.234C24.6524 63.2566 18.6806 65.5454 15.8829 70.735C13.0853 75.925 14.4551 82.1736 14.4693 82.236L14.5337 82.5206ZM23.1882 74.6756C20.823 79.0635 16.1038 81.3127 14.9081 81.8262C14.6807 80.5442 13.9678 75.3603 16.3309 70.9766C18.6937 66.5934 23.4148 64.3407 24.611 63.826C24.8385 65.1087 25.5512 70.2921 23.1882 74.6756Z" fill="#3F3D56"/>
<path d="M21.2828 73.5278C16.2553 76.5535 14.319 82.5632 14.319 82.5632C14.319 82.5632 20.534 83.6675 25.5615 80.6418C30.589 77.6162 32.5253 71.6064 32.5253 71.6064C32.5253 71.6064 26.3103 70.5021 21.2828 73.5278Z" fill="#D0CDE1"/>
<path d="M15.2994 99.369C19.3557 99.3644 23.2444 97.7506 26.1126 94.8815C28.9808 92.0124 30.5942 88.1224 30.5988 84.0649V83.8494H0V84.0649C0.0045948 88.1224 1.61797 92.0124 4.48617 94.8815C7.35437 97.7506 11.2432 99.3644 15.2994 99.369ZM30.1664 84.2805C30.1098 88.1873 28.5185 91.9149 25.7366 94.6577C22.9546 97.4004 19.2055 98.938 15.2994 98.938C11.3934 98.938 7.64418 97.4004 4.86224 94.6577C2.0803 91.9149 0.489063 88.1873 0.432442 84.2805H30.1664Z" fill="#3F3D56"/>
<path d="M15.2994 96.6747C12.6133 96.6747 10.0373 95.6073 8.13799 93.7074C6.23866 91.8075 5.17163 89.2306 5.17163 86.5438H25.4272C25.4272 89.2306 24.3601 91.8075 22.4608 93.7074C20.5615 95.6073 17.9855 96.6747 15.2994 96.6747Z" fill="#63FF64"/>
<path d="M150.408 24.3573C144.339 24.3573 139.419 19.4355 139.419 13.3642C139.419 7.29284 144.339 2.37106 150.408 2.37106C156.478 2.37106 161.398 7.29284 161.398 13.3642C161.398 19.4355 156.478 24.3573 150.408 24.3573Z" fill="#2F2E41"/>
<path d="M153.964 20.8007C153.964 20.8007 152.455 30.9316 155.257 33.3026C158.058 35.6737 150.731 45.589 150.731 45.589L140.819 29.6383C140.819 29.6383 148.361 27.6983 144.482 21.8784L153.964 20.8007Z" fill="#A0616A"/>
<path d="M157.627 50.5467L159.133 56.4614L160.644 62.402L165.815 61.9709L163.445 52.0556C163.445 52.0556 163.876 42.7869 164.091 40.6314C164.143 40.2357 164.113 39.8337 164.003 39.4502C163.929 39.1822 163.773 38.9441 163.557 38.7694C163.341 38.5946 163.076 38.492 162.799 38.4759L157.627 50.5467Z" fill="#575A89"/>
<path d="M151.809 133.103L158.273 134.396L158.903 128.897L161.167 109.065L161.721 104.219L154.179 102.063L154.229 103.788L154.395 109.608C154.07 110.744 153.828 111.902 153.673 113.074C153.355 115.28 153.236 117.511 153.317 119.739C153.533 125.774 151.809 133.103 151.809 133.103Z" fill="#A0616A"/>
<path d="M158.704 133.965L152.024 132.025L148.361 141.078L143.189 153.149C143.189 153.149 136.509 161.987 143.62 160.909C150.731 159.831 151.809 158.107 151.809 157.244V155.736L152.671 155.951L153.317 155.305L154.179 148.838C154.179 148.838 156.119 147.114 155.257 144.743L158.704 133.965Z" fill="#2F2E41"/>
<path opacity="0.2" d="M153.673 113.074L153.748 113.272C153.748 113.272 154.871 123.748 158.513 128.21L158.903 128.897L161.167 109.065L159.745 103.788H154.229L154.395 109.608C154.07 110.744 153.828 111.902 153.673 113.074Z" fill="black"/>
<path d="M150.731 103.788L154.395 113.272C154.395 113.272 155.517 123.749 159.158 128.21L163.876 136.552C163.876 136.552 169.479 134.612 169.048 134.612C168.617 134.612 165.384 123.619 165.384 123.619L162.368 111.117L160.392 103.788H150.731Z" fill="#A0616A"/>
<path d="M161.937 133.965L168.617 132.025L172.28 141.078L177.452 153.149C177.452 153.149 184.132 161.987 177.021 160.909C169.91 159.831 168.832 158.107 168.832 157.244V155.736L167.97 155.951L167.324 155.305L166.462 148.838C166.462 148.838 164.522 147.114 165.384 144.743L161.937 133.965Z" fill="#2F2E41"/>
<path d="M148.684 23.7106C144.519 23.7106 141.142 20.3329 141.142 16.1663C141.142 11.9997 144.519 8.62204 148.684 8.62204C152.85 8.62204 156.226 11.9997 156.226 16.1663C156.226 20.3329 152.85 23.7106 148.684 23.7106Z" fill="#A0616A"/>
<path opacity="0.2" d="M157.627 50.5467L159.133 56.4614L160.428 56.3666C160.463 55.8387 160.61 55.3244 160.859 54.8577C161.29 53.9955 160.859 54.6422 159.997 53.78C159.135 52.9178 159.782 53.3489 160.428 52.2711C161.075 51.1934 159.997 48.8223 159.997 48.8223C161.204 47.9601 162.799 38.4759 162.799 38.4759L157.627 50.5467Z" fill="black"/>
<path d="M150.516 42.3558L155.041 32.4404L163.661 38.4759C163.661 38.4759 160.859 47.7446 159.351 48.8223C159.351 48.8223 160.428 51.1934 159.782 52.2711C159.135 53.3489 158.489 52.9178 159.351 53.78C160.213 54.6422 160.644 53.9955 160.213 54.8577C159.964 55.3244 159.817 55.8387 159.782 56.3666L139.311 57.8755L138.018 54.2111C138.018 54.2111 135.432 49.2534 136.294 42.3558L133.062 30.5005L142.112 28.9916L150.516 42.3558Z" fill="#575A89"/>
<path d="M138.623 56.6271C138.623 56.6271 135.001 64.5575 138.664 77.4906C142.328 90.4237 145.56 104.003 145.56 104.003L162.152 105.943L162.583 98.3991L168.401 97.5369C168.401 97.5369 167.539 73.1796 164.953 67.1442C162.368 61.1087 159.903 55.6547 159.903 55.6547L138.623 56.6271Z" fill="#2F2E41"/>
<path opacity="0.2" d="M158.598 71.745L162.684 98.2591L162.258 98.3248L158.172 71.8107L158.598 71.745Z" fill="black"/>
<path d="M143.008 10.1582C143.471 8.89205 144.409 7.85626 145.624 7.27066C147.127 6.55458 148.879 6.61203 150.527 6.85065C152.428 7.12589 154.425 7.70116 155.653 9.17898C156.44 10.127 156.818 11.3396 157.179 12.5182C157.595 13.8806 158.015 15.2637 158.052 16.688C158.047 17.6744 157.949 18.6581 157.76 19.6262C157.706 20.1584 157.555 20.6761 157.314 21.1537C157.045 21.6142 156.553 21.9842 156.02 21.9509C156.545 21.0075 156.79 19.9339 156.727 18.856C156.663 17.7782 156.293 16.7409 155.661 15.866C155.351 15.4706 155.015 15.0968 154.655 14.747L151.916 11.9646C151.075 11.1111 150.197 10.2325 149.075 9.81332C148.43 9.57952 147.738 9.50731 147.058 9.60299C146.379 9.69867 145.733 9.95933 145.178 10.3622C144.715 10.709 144.33 11.1498 144.048 11.6557C143.848 12.0134 143.382 13.1655 143.382 13.1655C143.382 13.1655 142.842 10.6179 143.008 10.1582Z" fill="#2F2E41"/>
<path d="M156.119 17.6752C155.702 17.6752 155.364 16.9996 155.364 16.1663C155.364 15.333 155.702 14.6575 156.119 14.6575C156.535 14.6575 156.873 15.333 156.873 16.1663C156.873 16.9996 156.535 17.6752 156.119 17.6752Z" fill="#A0616A"/>
<path d="M155.364 6.89763C153.46 6.89763 151.917 5.35355 151.917 3.44882C151.917 1.54409 153.46 0 155.364 0C157.269 0 158.812 1.54409 158.812 3.44882C158.812 5.35355 157.269 6.89763 155.364 6.89763Z" fill="#2F2E41"/>
<path d="M147.148 70.2935H159.984C160.307 70.2935 160.617 70.1651 160.846 69.9366C161.074 69.7081 161.203 69.3982 161.203 69.075L161.768 52.2744C161.768 52.1144 161.737 51.9559 161.675 51.8081C161.614 51.6602 161.525 51.5259 161.411 51.4128C161.298 51.2996 161.164 51.2099 161.016 51.1486C160.868 51.0874 160.71 51.0559 160.55 51.0559H146.583C146.26 51.0559 145.95 51.1843 145.721 51.4128C145.493 51.6413 145.365 51.9512 145.365 52.2744L145.93 69.075C145.93 69.3982 146.059 69.7081 146.287 69.9366C146.516 70.1651 146.825 70.2935 147.148 70.2935Z" fill="#3F3D56"/>
<path d="M153.566 57.2798C152.942 57.2798 152.435 56.7732 152.435 56.1482C152.435 55.5232 152.942 55.0166 153.566 55.0166C154.191 55.0166 154.698 55.5232 154.698 56.1482C154.698 56.7732 154.191 57.2798 153.566 57.2798Z" fill="#D0CDE1"/>
<path d="M138.233 56.5822L145.489 57.4201C145.489 57.4201 157.842 56.7977 154.826 60.4621C151.809 64.1265 144.913 61.1087 144.913 61.1087L135.863 60.6776L138.233 56.5822Z" fill="#A0616A"/>
<path d="M164.546 58.6237C164.546 58.6237 166.942 59.6864 165.769 61.6372C164.596 63.5879 159.045 65.561 158.324 62.6597C157.603 59.7584 161.758 58.8433 162.79 58.7052C163.371 58.6221 163.959 58.5948 164.546 58.6237Z" fill="#A0616A"/>
<path d="M135.648 31.3627L133.062 30.5005C132.195 31.3085 131.594 32.3608 131.338 33.5182C130.907 35.4581 124.011 57.4444 127.459 59.1688C130.907 60.8932 136.94 63.6953 136.94 63.6953L139.742 56.3666L135.217 53.9955L136.94 44.5113C136.94 44.5113 138.664 31.3627 135.648 31.3627Z" fill="#575A89"/>
<path d="M46.6524 99.2613H101.816V44.0802H46.6524V99.2613ZM101.385 98.8302H47.0834V44.5113H101.385V98.8302Z" fill="#3F3D56"/>
<path d="M53.3324 50.7623H95.1364V92.5792H53.3324V50.7623Z" fill="#63FF64"/>
<path d="M79.5468 80.1175C80.7977 76.2358 82.3749 73.4855 84.5104 71.4624L84.6467 71.3332L84.5373 71.1804C80.4509 65.4737 77.0789 59.8909 74.5149 54.587L74.3251 54.1945L74.1286 54.5837C70.854 61.0666 67.5199 66.4936 63.9356 71.1749L63.8242 71.3203L63.9497 71.4537C66.5456 74.212 68.228 77.0434 69.0929 80.1099L69.5079 79.9929C68.6375 76.9077 66.9622 74.0598 64.3886 71.2918C67.8757 66.7161 71.1269 61.4354 74.3169 55.1654C76.8442 60.3271 80.1264 65.7455 84.0783 71.2795C81.9569 73.3412 80.3839 76.1139 79.1365 79.9853L79.5468 80.1175Z" fill="#3F3D56"/>
<path d="M74.1054 54.6809H74.5364V71.3059H74.1054V54.6809Z" fill="#3F3D56"/>
<path d="M74.321 72.5182C73.6517 72.5182 73.1091 71.9754 73.1091 71.3059C73.1091 70.6364 73.6517 70.0937 74.321 70.0937C74.9903 70.0937 75.5329 70.6364 75.5329 71.3059C75.5329 71.9754 74.9903 72.5182 74.321 72.5182Z" fill="#3F3D56"/>
<path d="M66.0264 79.2506L82.7863 90.4003L82.5476 90.7593L65.7877 79.6096L66.0264 79.2506Z" fill="#CFCCE0"/>
<path d="M83.6882 84.7891C84.4308 84.2828 84.6407 83.7864 84.6613 83.7336L84.26 83.5767L84.4606 83.6552L84.2606 83.575C84.248 83.6056 82.8866 86.6476 74.1199 84.9871C64.9388 83.2478 63.869 85.9591 63.828 86.0753L64.2345 86.219C64.2427 86.1974 65.3125 83.7574 74.0398 85.4106C79.7618 86.4946 82.457 85.6284 83.6882 84.7891Z" fill="#3F3D56"/>
<path d="M83.4765 82.4815L85.5938 82.8826L85.1928 85.0005L83.0756 84.5994L83.4765 82.4815Z" fill="#3F3D56"/>
<path d="M63.4249 84.7161L65.5421 85.1171L65.1411 87.235L63.0239 86.8339L63.4249 84.7161Z" fill="#3F3D56"/>
<path d="M74.1908 86.132C73.5957 86.132 73.1134 85.6495 73.1134 85.0542C73.1134 84.459 73.5957 83.9765 74.1908 83.9765C74.7858 83.9765 75.2682 84.459 75.2682 85.0542C75.2682 85.6495 74.7858 86.132 74.1908 86.132Z" fill="#CFCCE0"/>
<path d="M82.6671 91.6573C82.0721 91.6573 81.5897 91.1748 81.5897 90.5796C81.5897 89.9843 82.0721 89.5018 82.6671 89.5018C83.2621 89.5018 83.7445 89.9843 83.7445 90.5796C83.7445 91.1748 83.2621 91.6573 82.6671 91.6573Z" fill="#CFCCE0"/>
<path d="M65.9072 80.5076C65.3121 80.5076 64.8297 80.0251 64.8297 79.4299C64.8297 78.8347 65.3121 78.3521 65.9072 78.3521C66.5022 78.3521 66.9846 78.8347 66.9846 79.4299C66.9846 80.0251 66.5022 80.5076 65.9072 80.5076Z" fill="#CFCCE0"/>
<path d="M74.0189 71.6624H74.4499V75.5423H74.0189V71.6624Z" fill="#3F3D56"/>
<path d="M2.0471 99.0374H106.342V99.4685H2.0471V99.0374Z" fill="#3F3D56"/>
</svg>
