<svg width="142" height="140" viewBox="0 0 142 140" fill="none" xmlns="http://www.w3.org/2000/svg">
<g clip-path="url(#clip0)">
<path d="M56.6095 16.5587L57.4622 12.4611C58.9743 11.6805 60.5213 11.0043 62.0958 10.4359L62.2035 12.3402L62.6401 10.2422C64.5928 9.5629 65.9212 9.26367 65.9212 9.26367C65.9212 9.26367 64.1268 17.5767 60.3632 23.9322L55.9778 24.8706L59.3847 25.4691C58.9111 26.1632 58.4021 26.8204 57.8607 27.4366C52.3857 33.628 46.2876 36.4686 44.2401 33.7813C42.1927 31.0941 44.9713 23.8966 50.4464 17.7052C52.1437 15.7859 54.2758 14.2456 56.4102 13.0334L56.6095 16.5587Z" fill="#E6E6E6"/>
<path d="M48.4992 12.1088L47.4906 8.06412C48.4538 6.44362 49.4912 4.8906 50.5979 3.41245L51.498 4.97483L50.9817 2.90393C52.365 1.09271 53.3753 0 53.3753 0C53.3753 0 55.3663 8.24634 54.841 16.057L51.485 19.622L54.6554 17.9889C54.5445 18.8813 54.3876 19.7644 54.1856 20.6329C52.1257 29.3807 48.1106 35.6526 45.2177 34.6415C42.3249 33.6304 41.6497 25.7193 43.7097 16.9714C44.3483 14.2595 45.52 11.5983 46.8328 9.21649L48.4992 12.1088Z" fill="#E6E6E6"/>
<path d="M114.654 118.637L115.506 114.539C117.018 113.758 118.565 113.082 120.14 112.514L120.248 114.418L120.684 112.32C122.637 111.641 123.965 111.342 123.965 111.342C123.965 111.342 122.171 119.655 118.407 126.01L114.022 126.949L117.429 127.547C116.955 128.241 116.446 128.898 115.905 129.515C110.43 135.706 104.332 138.547 102.284 135.859C100.237 133.172 103.015 125.975 108.491 119.783C110.188 117.864 112.32 116.324 114.454 115.111L114.654 118.637Z" fill="#E6E6E6"/>
<path d="M106.543 114.187L105.535 110.142C106.498 108.522 107.535 106.969 108.642 105.49L109.542 107.053L109.026 104.982C110.409 103.171 111.419 102.078 111.419 102.078C111.419 102.078 113.41 110.324 112.885 118.135L109.529 121.7L112.7 120.067C112.589 120.959 112.432 121.842 112.23 122.711C110.17 131.459 106.155 137.731 103.262 136.719C100.369 135.708 99.6939 127.797 101.754 119.049C102.392 116.337 103.564 113.676 104.877 111.294L106.543 114.187Z" fill="#E6E6E6"/>
<path d="M142 136.441H0.00769043V136.877H142V136.441Z" fill="#3F3D56"/>
<path d="M84.5877 47.1578L85.8005 61.7682H95.7809L95.3011 39.5604C95.3011 34.7803 92.5888 30.5993 88.6652 30.5993C84.7417 30.5993 82.1892 34.5855 82.1892 39.3656L81.5496 61.7682H83.1769L84.5877 47.1578Z" fill="#2F2E41"/>
<path d="M80.99 61.0863L80.0306 71.2162L77.4721 85.8266C77.4721 85.8266 75.5533 92.6448 77.4721 92.6448C79.3909 92.6448 79.3909 85.8266 79.3909 85.8266L81.9494 77.2552L83.7083 61.4759L80.99 61.0863Z" fill="#A0616A"/>
<path d="M80.6702 78.424C80.6702 78.424 79.7108 84.2682 80.99 92.8396C82.2692 101.411 82.589 105.112 82.589 105.112C82.589 105.112 81.6296 106.476 82.2692 107.255C82.9088 108.034 82.2692 109.593 82.2692 109.593L83.3885 122.84L88.3454 121.866L88.0256 109.788C88.0256 109.788 88.6652 108.229 88.3454 107.84C88.0256 107.45 88.6652 105.112 88.6652 105.112L89.4648 86.6058L94.4217 106.866C94.4217 106.866 93.942 107.645 94.4217 108.229C94.9014 108.814 95.8608 111.736 95.8608 111.736L99.0588 125.372L104.176 124.203L101.297 108.619C101.297 108.619 101.617 107.645 101.138 107.06C100.998 106.882 100.895 106.664 100.84 106.427C100.784 106.189 100.776 105.939 100.818 105.697C100.818 105.697 101.297 105.112 100.658 104.333C100.018 103.554 99.6984 100.437 99.6984 100.437C99.6984 100.437 99.2187 79.5928 97.6197 78.424C96.0207 77.2552 80.6702 78.424 80.6702 78.424Z" fill="#2F2E41"/>
<path d="M84.0281 122.06L84.8276 130.437L84.5078 134.138C84.5078 134.138 80.8301 140.372 85.3073 139.982C89.7846 139.593 88.3454 137.255 88.3454 137.255L89.7084 136.199C89.8264 136.107 89.9196 135.975 89.9759 135.819C90.0323 135.663 90.0493 135.491 90.0249 135.323C89.8632 134.217 89.4701 131.767 88.9851 130.437C88.3454 128.684 88.0256 121.476 88.0256 121.476L84.0281 122.06Z" fill="#2F2E41"/>
<path d="M103.28 121.565L104.219 129.92L105.286 133.408C105.286 133.408 110.123 138.328 105.707 139.31C101.292 140.292 102.207 137.591 102.207 137.591L100.671 136.982C100.538 136.929 100.421 136.83 100.334 136.696C100.248 136.562 100.196 136.4 100.185 136.23C100.116 135.109 99.9952 132.617 100.193 131.182C100.454 129.29 99.2892 122.213 99.2892 122.213L103.28 121.565Z" fill="#2F2E41"/>
<path d="M88.6653 44.1383C91.138 44.1383 93.1425 41.6962 93.1425 38.6837C93.1425 35.6713 91.138 33.2292 88.6653 33.2292C86.1925 33.2292 84.188 35.6713 84.188 38.6837C84.188 41.6962 86.1925 44.1383 88.6653 44.1383Z" fill="#A0616A"/>
<path d="M86.4266 42.5798C86.4266 42.5798 87.7058 47.8396 86.4266 49.398C85.1474 50.9565 84.8276 51.5409 84.8276 51.5409L88.5053 57.5798L94.9014 48.0344C94.9014 48.0344 90.4241 46.4759 91.5435 42.1902L86.4266 42.5798Z" fill="#A0616A"/>
<path d="M88.5053 55.0474L94.21 47.7189C94.21 47.7189 97.4598 47.2552 98.4192 48.424L97.4598 71.9954C97.4598 71.9954 98.0994 72.5799 97.7796 73.9435C97.5939 74.8385 97.5939 75.7757 97.7796 76.6708C97.7796 76.6708 98.739 78.0344 98.2593 78.6188C97.7796 79.2032 80.5103 78.8136 80.5103 78.8136C80.5103 78.8136 79.8707 77.45 80.8301 76.6708C81.7895 75.8915 81.3098 73.7487 81.3098 73.7487C81.3098 73.7487 80.99 73.1643 81.7895 72.1902C82.589 71.2162 83.2286 63.2292 83.2286 63.2292L81.1499 53.4889C81.1499 53.4889 83.2424 50.6116 85.634 50.3944L88.5053 55.0474Z" fill="#E6E6E6"/>
<path d="M96.3405 48.424H98.4192C98.4192 48.424 98.8989 48.424 99.3786 50.372C99.8583 52.3201 100.498 57.1902 100.498 57.1902L96.0207 57.7747L96.3405 48.424Z" fill="#E6E6E6"/>
<path d="M100.178 56.411L100.498 67.3201L100.818 83.6837C100.818 83.6837 102.896 90.5019 100.338 90.6967C97.7796 90.8915 98.4192 83.2941 98.4192 83.2941L96.3405 56.9954L100.178 56.411Z" fill="#A0616A"/>
<path d="M81.7895 53.6837L81.1499 53.4889C81.1499 53.4889 79.7108 56.9954 79.5509 60.1123L79.391 61.2811L84.3479 62.0604L81.7895 53.6837Z" fill="#E6E6E6"/>
<path d="M84.9075 37.8071C87.7992 35.9078 88.9871 35.9882 92.5828 37.8071L93.5422 34.9594C93.5417 34.4232 93.3667 33.9092 93.0555 33.53C92.7442 33.1509 92.3223 32.9376 91.8822 32.937H85.4483C85.0082 32.9376 84.5862 33.1509 84.275 33.53C83.9638 33.9092 83.7887 34.4232 83.7882 34.9594L84.9075 37.8071Z" fill="#2F2E41"/>
<path d="M6.61591 28.5947H41.4023V20.5346H0V70.9744H6.61591V28.5947Z" fill="#3F3D56"/>
<path d="M46.951 77.4744H12.1646V85.5343H53.5669V35.0946H46.951V77.4744Z" fill="#3F3D56"/>
<path d="M50.1523 24.6946H3.62805V81.3744H50.1523V24.6946Z" fill="#63FF64"/>
<path d="M16.8642 35.8746H11.3327V36.4362H16.8642V35.8746Z" fill="white"/>
<path d="M24.2396 35.8746H18.7081V36.4362H24.2396V35.8746Z" fill="white"/>
<path d="M34.957 41.0692H29.4255V41.6308H34.957V41.0692Z" fill="white"/>
<path d="M42.4477 41.0692H36.9161V41.6308H42.4477V41.0692Z" fill="white"/>
<path d="M42.4477 35.8746H26.1987V36.4362H42.4477V35.8746Z" fill="white"/>
<path d="M27.5816 41.0692H11.3327V41.6308H27.5816V41.0692Z" fill="white"/>
<path d="M27.5816 46.2639H11.3327V46.8255H27.5816V46.2639Z" fill="white"/>
<path d="M42.4477 46.2639H31.1541V46.8255H42.4477V46.2639Z" fill="white"/>
<path d="M16.8642 54.8545H11.3327V55.4161H16.8642V54.8545Z" fill="white"/>
<path d="M24.2396 54.8545H18.7081V55.4161H24.2396V54.8545Z" fill="white"/>
<path d="M34.957 60.0492H29.4255V60.6107H34.957V60.0492Z" fill="white"/>
<path d="M42.4477 60.0492H36.9161V60.6107H42.4477V60.0492Z" fill="white"/>
<path d="M42.4477 54.8545H26.1987V55.4161H42.4477V54.8545Z" fill="white"/>
<path d="M27.5816 60.0492H11.3327V60.6107H27.5816V60.0492Z" fill="white"/>
<path d="M27.5816 65.2438H11.3327V65.8054H27.5816V65.2438Z" fill="white"/>
<path d="M42.4477 65.2438H31.1541V65.8054H42.4477V65.2438Z" fill="white"/>
</g>
<defs>
<clipPath id="clip0">
<rect width="142" height="140" fill="white"/>
</clipPath>
</defs>
</svg>
